<svg height="32" viewBox="0 0 191 32" width="191" xmlns="http://www.w3.org/2000/svg"><g fill="none"><ellipse cx="14.867987" cy="16.333333" fill="#fff" rx="13.118812" ry="12.801802"/><g transform="translate(0 .140378)"><g fill="#000"><path d="m166.935028 5.675676h3.668079v3.783784h-3.668079z"/><path d="m43.4180791 23.7621622c-1.7217514.1513513-3.2189266-.5297298-3.2189266-3.1783784v-7.1135135h3.2189266v-2.345946h-3.2189266v-5.44864862h-2.3206214v5.44864862h-1.9463277v2.345946h1.9463277v7.1135135c0 3.7837838 2.2457627 5.827027 5.539548 5.4486486z"/><path d="m57.7161017 16.9513514c0-3.6324325-2.0211864-6.2054055-5.539548-6.2054055-1.7217514 0-3.1440678.6810811-4.1172317 1.8918919v-6.96216212h-2.3954802v20.12972972h2.3954802v-9.0054054c0-2.1945946 1.5720339-3.8594595 3.7429379-3.8594595 2.3206215 0 3.5183616 1.5891892 3.5183616 3.9351352v8.9297297h2.3206214v-8.854054z"/><path d="m70.8163842 21.4918919c-.7485876 1.7405405-2.2457627 2.7243243-4.2669492 2.7243243-2.3954802 0-4.6412429-1.8162162-5.0155367-4.8432432h12.1271186c0-5.2216216-3.5183615-8.4-7.2612994-8.4-3.9675141 0-7.2612994 3.4810811-7.2612994 7.7189189 0 4.3135135 3.2189265 7.7189189 7.4110169 7.7189189 3.3686441 0 5.7641243-1.7405405 6.8121469-4.9189189zm-9.1327684-4.3135135c.5988701-2.4972973 2.6949153-4.0108108 4.7161017-4.0108108 2.0960452 0 4.0423729 1.5891892 4.641243 4.0108108"/><path d="m93.6483051 21.0378378h-3.8926554c-.4491525 1.0594595-1.6468926 1.8918919-2.9943503 1.8918919-2.0211864 0-3.6680791-1.8918919-3.6680791-4.2378378 0-2.345946 1.6468927-4.3135135 3.6680791-4.3135135 1.3474577 0 2.470339.8324324 2.9943503 1.8918919h3.8926554c-.8234463-3.3297298-3.4435028-5.2972973-6.8870057-5.2972973-4.3418079 0-7.4110169 3.4810811-7.4110169 7.7189189 0 4.3135135 3.069209 7.7189189 7.4110169 7.7189189 3.4435029-.0756757 6.0635594-2.0432432 6.8870057-5.372973z"/><path d="m103.080508 22.9297297c1.946328 0 3.593221-1.7405405 3.593221-4.1621621 0-2.572973-1.572034-4.3135135-3.593221-4.3135135-2.021186 0-3.5183611 1.7405405-3.5183611 4.3135135 0 2.4972973 1.5720341 4.1621621 3.5183611 4.1621621zm0-11.9567567c3.967515 0 7.2613 3.3297297 7.2613 7.7189189s-3.293785 7.7189189-7.2613 7.7189189c-3.9675136 0-7.261299-3.254054-7.261299-7.7189189.0748588-4.3891892 3.2937854-7.7189189 7.261299-7.7189189z"/><path d="m125.912429 21.0378378h-3.967514c-.449152 1.0594595-1.646892 1.8918919-2.99435 1.8918919-2.021186 0-3.668079-1.8918919-3.668079-4.2378378 0-2.345946 1.646893-4.3135135 3.668079-4.3135135 1.347458 0 2.470339.8324324 2.99435 1.8918919h3.892656c-.823447-3.3297298-3.443503-5.2972973-6.887006-5.2972973-4.341808 0-7.411017 3.4810811-7.411017 7.7189189 0 4.3135135 3.069209 7.7189189 7.411017 7.7189189 3.518362-.0756757 6.138418-2.0432432 6.961864-5.372973z"/><path d="m133.548023 19.6 3.518361 6.2054054h4.716102l-5.689266-9.0054054 5.389831-5.7513514h-5.090396l-4.716101 5.372973v-10.74594592h-3.668079v20.12972972h3.668079v-4.2378378z"/><path d="m160.721751 18.6918919c0-2.345946-1.646892-4.2378378-3.668079-4.2378378-2.021186 0-3.668079 1.8162162-3.668079 4.2378378 0 2.3459459 1.646893 4.1621622 3.668079 4.1621622 2.096046 0 3.668079-1.8918919 3.668079-4.1621622zm4.117232-7.4162162v14.8324324h-3.892655v-1.6648649c-1.122882 1.2108109-2.694916 1.8918919-4.416667 1.8918919-3.742938 0-6.812147-3.3297297-6.812147-7.6432432 0-4.3891892 3.069209-7.7189189 6.812147-7.7189189 1.79661 0 3.293785.6810811 4.416667 1.8918919v-1.5891892z"/><path d="m166.935028 10.972973h3.668079v14.681081h-3.668079z"/><path d="m172.923729 5.675676h3.668079v20.12973h-3.668079z"/></g><path d="m28.8206215.37837838h-27.02401133c-.97316384 0-1.79661017.83243243-1.79661017 1.81621621v27.31891891c0 1.1351351.82344633 1.8162162 1.79661017 1.8162162h27.02401133c.9731638 0 1.7966101-.7567567 1.7966101-1.8162162v-27.31891891c.0748588-.98378378-.7485875-1.81621621-1.7966101-1.81621621zm-6.7372882 22.62702702c-4.6412429 4.7675676-11.6031073 5.4486487-15.34604516 1.5891892-3.89265537-3.9351351-3.1440678-10.972973 1.49717514-15.74054055 4.56638422-4.76756756 11.52824862-5.52432432 15.27118642-1.58918919 3.8926554 3.85945944 3.1440678 10.97297294-1.4223164 15.74054054z" fill="#90ac2b"/><path d="m8.24382062 20.2047587.97316384.9081081.89830504-.9081081c.4491526-.454054 1.0480226.2270271.5988701.6054054l-.89830508.9081081.89830508.9837838c.4491525.4540541-.2245763 1.0594595-.5988701.6054054l-.89830504-.9081081-.97316384.9837838c-.44915254.4540541-1.0480226-.227027-.59887006-.6054054l.89830509-.9837838-.89830509-.9081081c-.44915254-.454054.22457628-1.1351351.59887006-.6810811z" fill="#90ac2b"/><path d="m148.819209 22.5513514c-1.871469.1513513-3.069209-.6810811-3.069209-2.8v-5.372973h2.919492v-3.3297298h-2.919492v-5.37297292h-3.518362v14.00000002c0 4.1621621 2.320622 6.8108108 6.587571 6.3567567z" fill="#000"/></g><g fill="#000" transform="translate(182 1)"><path d="m4.5 8.97727273c-2.47272945 0-4.47727273-2.00454328-4.47727273-4.47727273s2.00454328-4.47727273 4.47727273-4.47727273 4.47727273 2.00454328 4.47727273 4.47727273-2.00454328 4.47727273-4.47727273 4.47727273zm0-.90909091c1.9706524 0 3.56818182-1.59752942 3.56818182-3.56818182s-1.59752942-3.56818182-3.56818182-3.56818182-3.56818182 1.59752942-3.56818182 3.56818182 1.59752942 3.56818182 3.56818182 3.56818182z"/><path d="m4.25454545 4.13636364c.25 0 .43181819-.05.5409091-.14545455.1090909-.09090909.16818181-.24545454.16818181-.46363636 0-.21363637-.05909091-.36363637-.16818181-.45909091-.10909091-.09090909-.2909091-.13636364-.5409091-.13636364h-.5090909v1.20454546zm-.5090909.83181818v1.77272727h-1.20909091v-4.68636364h1.84545454c.61818182 0 1.06818182.10454546 1.35454546.31363637.29090909.20454545.43181818.53181818.43181818.98181818 0 .30909091-.07272727.56363636-.22272727.76363636-.15.19545455-.37272728.34545455-.67727273.43636364.16818182.04090909.31363636.12727273.44545454.25909091.13181819.13181818.26363637.33181818.39545455.60454545l.65909091 1.32727273h-1.28636364l-.57272727-1.16363636c-.11363636-.23181818-.23181818-.39545455-.35-.47727273-.11818182-.08636364-.27727273-.13181818-.47272727-.13181818z"/></g></g></svg>